<?xml version="1.0" encoding="UTF-8"?><svg width="512" height="512" version="1.1" viewBox="0 0 135.47 135.46" xmlns="http://www.w3.org/2000/svg"><g transform="translate(.045342 -4.1564)" stroke-opacity="0"><g fill="#0073e5"><rect transform="rotate(43.363)" x="98.675" y="-34.144" width="3.6203" height="15.59"/><rect transform="rotate(207.7)" x="-107.71" y="5.2644" width="3.6203" height="16.465"/><rect transform="matrix(-.96626 -.25756 -.25756 .96626 0 0)" x="-78.822" y="56.808" width="3.6203" height="20.532"/><rect transform="matrix(-1 .0011668 .0011668 1 0 0)" x="-56.255" y="94.161" width="3.6203" height="20.532"/><rect transform="rotate(223.36)" x="-75.002" y="-22.085" width="3.6203" height="15.59"/><rect transform="rotate(27.703)" x="62.771" y="40.534" width="3.6203" height="14.677"/><rect transform="rotate(-14.925)" x="52.051" y="91.693" width="3.6203" height="20.532"/></g><path transform="matrix(.10869 -.010958 .010954 .10873 44.797 50.526)" d="m368.39 234.23-34.166 30.142-299.35-30.142-30.142-34.166 30.142-299.35 34.166-30.142 299.35 30.142 30.142 34.166z" fill="#0081ff"/><rect x="51.097" y="39.298" width="32.712" height="32.712" fill="#1e90ff"/><circle cx="60.547" cy="50.945" r="2.2389"/><circle cx="74.866" cy="50.945" r="2.2389"/><rect transform="rotate(.066854)" x="79.187" y="94.003" width="3.6203" height="20.532" fill="#0073e5"/></g></svg>